<?xml version="1.0" encoding="UTF-8" standalone="no"?>
<svg width="266px" height="50px" viewBox="0 0 266 50" version="1.1" xmlns="http://www.w3.org/2000/svg" xmlns:xlink="http://www.w3.org/1999/xlink">
    <!-- Generator: Sketch 41.2 (35397) - http://www.bohemiancoding.com/sketch -->
    <title>Logo</title>
    <desc>Created with Sketch.</desc>
    <defs>
        <linearGradient x1="27.059505%" y1="17.4896369%" x2="81.7867899%" y2="100%" id="linearGradient-1">
            <stop stop-color="#774377" offset="0%"></stop>
            <stop stop-color="#422042" offset="100%"></stop>
        </linearGradient>
        <linearGradient x1="19.6805497%" y1="8.95402969%" x2="50%" y2="100%" id="linearGradient-2">
            <stop stop-color="#F4B366" offset="0%"></stop>
            <stop stop-color="#F97455" offset="100%"></stop>
        </linearGradient>
        <ellipse id="path-3" cx="11.5181327" cy="25" rx="2.87953316" ry="2.87356322"></ellipse>
        <filter x="-50%" y="-50%" width="200%" height="200%" filterUnits="objectBoundingBox" id="filter-4">
            <feGaussianBlur stdDeviation="1" in="SourceAlpha" result="shadowBlurInner1"></feGaussianBlur>
            <feOffset dx="0" dy="0" in="shadowBlurInner1" result="shadowOffsetInner1"></feOffset>
            <feComposite in="shadowOffsetInner1" in2="SourceAlpha" operator="arithmetic" k2="-1" k3="1" result="shadowInnerInner1"></feComposite>
            <feColorMatrix values="0 0 0 0 0   0 0 0 0 0   0 0 0 0 0  0 0 0 0.2 0" type="matrix" in="shadowInnerInner1"></feColorMatrix>
        </filter>
        <ellipse id="path-5" cx="24.7639852" cy="25" rx="2.87953316" ry="2.87356322"></ellipse>
        <filter x="-50%" y="-50%" width="200%" height="200%" filterUnits="objectBoundingBox" id="filter-6">
            <feGaussianBlur stdDeviation="1" in="SourceAlpha" result="shadowBlurInner1"></feGaussianBlur>
            <feOffset dx="0" dy="0" in="shadowBlurInner1" result="shadowOffsetInner1"></feOffset>
            <feComposite in="shadowOffsetInner1" in2="SourceAlpha" operator="arithmetic" k2="-1" k3="1" result="shadowInnerInner1"></feComposite>
            <feColorMatrix values="0 0 0 0 0   0 0 0 0 0   0 0 0 0 0  0 0 0 0.2 0" type="matrix" in="shadowInnerInner1"></feColorMatrix>
        </filter>
        <ellipse id="path-7" cx="38.2977911" cy="25" rx="2.87953316" ry="2.87356322"></ellipse>
        <filter x="-50%" y="-50%" width="200%" height="200%" filterUnits="objectBoundingBox" id="filter-8">
            <feGaussianBlur stdDeviation="1" in="SourceAlpha" result="shadowBlurInner1"></feGaussianBlur>
            <feOffset dx="0" dy="0" in="shadowBlurInner1" result="shadowOffsetInner1"></feOffset>
            <feComposite in="shadowOffsetInner1" in2="SourceAlpha" operator="arithmetic" k2="-1" k3="1" result="shadowInnerInner1"></feComposite>
            <feColorMatrix values="0 0 0 0 0   0 0 0 0 0   0 0 0 0 0  0 0 0 0.2 0" type="matrix" in="shadowInnerInner1"></feColorMatrix>
        </filter>
    </defs>
    <g id="Page-1" stroke="none" stroke-width="1" fill="none" fill-rule="evenodd">
        <g id="Artboard-5" transform="translate(-50.000000, -50.000000)">
            <g id="Logo" transform="translate(50.000000, 50.000000)">
                <g id="Letters" fill="url(#linearGradient-1)">
                    <path d="M2.00013884,45.4109756 C0.897802002,44.5866872 8.08757771e-05,43.0059264 8.08757771e-05,41.3525055 C8.08757771e-05,38.5324863 2.20556332,36.2646839 5.02974546,36.2646839 C6.33912429,36.2646839 7.16729225,36.6069937 8.19926716,37.3626587 C10.3376227,38.9442269 12.1969568,39.77013 14.6086725,39.77013 C18.7414247,39.77013 21.2243111,37.3626587 21.2243111,31.7928585 L21.2243111,5.65621374 C21.2243111,2.69814039 23.5664736,0.360099891 26.5281445,0.360099891 C29.4906243,0.360099891 31.8327868,2.69814039 31.8327868,5.65621374 L31.8327868,32.2748372 C31.8327868,37.9834989 30.1804946,42.2454174 27.2859506,45.1364819 C24.3234709,48.0929406 19.9812504,49.6066927 14.7469701,49.6066927 C9.23447711,49.6066927 5.02974546,47.7490161 2.00013884,45.4109756 Z" id="Fill-1"></path>
                    <path d="M116.555801,39.5286563 C121.240126,39.5286563 124.065117,37.8615107 124.065117,34.2422304 L124.065117,34.1041762 C124.065117,30.8360865 121.653401,28.8177504 116.21127,28.8177504 L103.946458,28.8177504 L103.946458,39.5286563 L116.555801,39.5286563 Z M113.731618,19.9144663 C118.415944,19.9144663 121.378423,18.3861823 121.378423,14.769324 L121.378423,14.6304625 C121.378423,11.4309962 118.897963,9.62175972 114.418254,9.62175972 L103.946458,9.62175972 L103.946458,19.9144663 L113.731618,19.9144663 Z M93.6097251,5.59073892 C93.6097251,2.59714286 95.9518876,0.232460317 98.9167936,0.232460317 L116.003419,0.232460317 C121.515103,0.232460317 125.855706,1.76397373 128.612761,4.54524083 C130.816626,6.77025452 131.919772,9.48370553 131.919772,12.8220334 L131.919772,12.9608949 C131.919772,18.4572277 129.025228,21.5154105 125.580729,23.4618938 C131.162775,25.6198987 134.608083,28.8887958 134.608083,35.4257827 L134.608083,35.5654516 C134.608083,44.4663136 127.440063,48.918763 116.555801,48.918763 L98.9167936,48.918763 C95.9518876,48.918763 93.6097251,46.5548878 93.6097251,43.5637137 L93.6097251,5.59073892 Z" id="Fill-3"></path>
                    <path d="M163.451184,39.5531185 C168.135509,39.5531185 170.9605,37.8892022 170.9605,34.2812247 L170.9605,34.1431705 C170.9605,30.8839614 168.547975,28.8704693 163.105844,28.8704693 L150.84265,28.8704693 L150.84265,39.5531185 L163.451184,39.5531185 Z M160.626193,19.990598 C165.311327,19.990598 168.273806,18.4663506 168.273806,14.8591804 L168.273806,14.7203188 C168.273806,11.5297332 165.792537,9.72534072 161.312019,9.72534072 L150.84265,9.72534072 L150.84265,19.990598 L160.626193,19.990598 Z M140.505108,5.70400794 C140.505108,2.71848522 142.846462,0.360261357 145.812177,0.360261357 L162.897993,0.360261357 C168.409678,0.360261357 172.75028,1.8877381 175.507336,4.66093186 C177.712818,6.8802942 178.815155,9.58728654 178.815155,12.9167337 L178.815155,13.0547879 C178.815155,18.537396 175.918993,21.5866981 172.475303,23.5283374 C178.058158,25.680691 181.501848,28.9407074 181.501848,35.4615476 L181.501848,35.6004091 C181.501848,44.4786658 174.335446,48.9190052 163.451184,48.9190052 L145.812177,48.9190052 C142.846462,48.9190052 140.505108,46.5615887 140.505108,43.5776806 L140.505108,5.70400794 Z" id="Fill-6"></path>
                    <path d="M187.399278,5.65605227 C187.399278,2.69797893 189.742249,0.359938424 192.707964,0.359938424 C195.668826,0.359938424 198.011797,2.69797893 198.011797,5.65605227 L198.011797,39.2887972 L217.648436,39.2887972 C220.335129,39.2887972 222.474294,41.4233894 222.474294,44.1053544 C222.474294,46.7873194 220.335129,48.9186823 217.648436,48.9186823 L192.707964,48.9186823 C189.742249,48.9186823 187.399278,46.5806418 187.399278,43.6225684 L187.399278,5.65605227 Z" id="Fill-8"></path>
                    <path d="M228.344206,43.5779228 L228.344206,5.70425014 C228.344206,2.71872742 230.68556,0.360503558 233.651275,0.360503558 L260.385572,0.360503558 C263.002712,0.360503558 265.13945,2.51204981 265.13945,5.14557471 C265.13945,7.78152162 263.002712,9.86282978 260.385572,9.86282978 L238.885555,9.86282978 L238.885555,19.7139245 L257.284794,19.7139245 C259.902743,19.7139245 262.037864,21.8662781 262.037864,24.5014176 C262.037864,27.1365572 259.902743,29.2186727 257.284794,29.2186727 L238.885555,29.2186727 L238.885555,39.4177285 L260.729294,39.4177285 C263.346434,39.4177285 265.481554,41.5652381 265.481554,44.2003777 C265.481554,46.8355172 263.346434,48.9184401 260.729294,48.9184401 L233.651275,48.9184401 C230.68556,48.9184401 228.344206,46.5610235 228.344206,43.5779228" id="Fill-10"></path>
                </g>
                <g id="Bubble" transform="translate(37.721884, 0.000000)">
                    <path d="M11.6428406,45.9938931 L0.267348168,49.0335878 L3.38067305,37.4389313 C1.23691556,33.7603053 0,29.4847328 0,24.9206107 C0,11.1576336 11.1811965,0 24.9739142,0 C38.7639545,0 49.9466809,11.1576336 49.9466809,24.9206107 C49.9466809,38.6835878 38.7639545,49.8435115 24.9739142,49.8435115 C20.0690888,49.8446565 15.5004567,48.429771 11.6428406,45.9938931" id="Fill-1" fill="url(#linearGradient-2)"></path>
                    <g id="Oval-2">
                        <use fill="#FFFFFF" fill-rule="evenodd" xlink:href="#path-3"></use>
                        <use fill="black" fill-opacity="1" filter="url(#filter-4)" xlink:href="#path-3"></use>
                    </g>
                    <g id="Oval-2">
                        <use fill="#FFFFFF" fill-rule="evenodd" xlink:href="#path-5"></use>
                        <use fill="black" fill-opacity="1" filter="url(#filter-6)" xlink:href="#path-5"></use>
                    </g>
                    <g id="Oval-2">
                        <use fill="#FFFFFF" fill-rule="evenodd" xlink:href="#path-7"></use>
                        <use fill="black" fill-opacity="1" filter="url(#filter-8)" xlink:href="#path-7"></use>
                    </g>
                </g>
            </g>
        </g>
    </g>
</svg>